<svg width="22" height="22" fill="none" xmlns="http://www.w3.org/2000/svg"><g clip-path="url(#clip0_111_216)"><path d="M12.967 3.075l7.468 7.467H.458a.458.458 0 100 .917h19.977l-7.468 7.467a.458.458 0 00.648.648l8.25-8.25a.458.458 0 00.001-.648l-8.25-8.25a.458.458 0 00-.649.647v.002z" fill="#FFC107"/><path d="M22 11a.458.458 0 01-.134.325l-8.25 8.25a.458.458 0 01-.648-.648L20.894 11l-7.926-7.926a.458.458 0 01.648-.648l8.25 8.25A.458.458 0 0122 11z" fill="#fff"/><path d="M22 11a.458.458 0 01-.458.459H.458a.458.458 0 010-.917h21.084c.253 0 .458.205.458.459z" fill="#fff"/></g><defs><clipPath id="clip0_111_216"><path fill="#fff" transform="rotate(-90 11 11)" d="M0 0h22v22H0z"/></clipPath></defs></svg>