<svg width="20" height="20" fill="none" xmlns="http://www.w3.org/2000/svg"><path d="M9.997 5.126c-2.84 0-5.13 2.177-5.13 4.874 0 2.697 2.29 4.874 5.13 4.874s5.131-2.177 5.131-4.874c0-2.697-2.291-4.874-5.13-4.874zm0 8.042c-1.836 0-3.334-1.424-3.334-3.168 0-1.744 1.498-3.168 3.334-3.168 1.837 0 3.335 1.424 3.335 3.168 0 1.744-1.498 3.168-3.335 3.168zm5.341-9.378c-.663 0-1.198.509-1.198 1.138 0 .63.535 1.139 1.198 1.139.663 0 1.199-.506 1.199-1.139 0-.15-.031-.297-.091-.436a1.136 1.136 0 00-.26-.37 1.203 1.203 0 00-.389-.246 1.252 1.252 0 00-.459-.086zm4.66 6.21c0-1.312.013-2.612-.064-3.921-.078-1.521-.443-2.871-1.614-3.984C17.147.981 15.73.636 14.127.562 12.747.49 11.378.501 10 .501 8.619.5 7.25.489 5.872.562 4.271.636 2.85.983 1.68 2.095.506 3.21.143 4.558.066 6.08-.012 7.39 0 8.69 0 10s-.013 2.612.065 3.921c.077 1.521.443 2.871 1.613 3.984 1.174 1.114 2.592 1.459 4.193 1.532 1.381.074 2.75.062 4.128.062 1.38 0 2.75.012 4.127-.061 1.602-.074 3.022-.421 4.193-1.533 1.174-1.115 1.536-2.463 1.614-3.984.08-1.31.065-2.61.065-3.921zm-2.2 5.604a3.01 3.01 0 01-.756 1.088c-.353.336-.69.545-1.146.718-1.316.497-4.44.385-5.899.385-1.458 0-4.585.112-5.901-.382a3.198 3.198 0 01-1.146-.718 3.032 3.032 0 01-.755-1.089c-.52-1.252-.403-4.22-.403-5.606 0-1.386-.118-4.356.403-5.606a3 3 0 01.755-1.089c.353-.333.69-.544 1.146-.718 1.316-.494 4.443-.382 5.901-.382 1.459 0 4.586-.112 5.902.382.455.174.795.383 1.145.718.353.335.573.656.756 1.089.52 1.25.403 4.22.403 5.606 0 1.386.117 4.354-.406 5.604z" fill="#333"/></svg>