<svg width="24" height="24" fill="none" xmlns="http://www.w3.org/2000/svg"><path fill-rule="evenodd" clip-rule="evenodd" d="M12 3.25a3.5 3.5 0 100 7 3.5 3.5 0 000-7zm-5.5 3.5a5.5 5.5 0 1111 0 5.5 5.5 0 01-11 0zm-.396 8.5c-.693 0-1.235.338-1.455.823-.305.67-.58 1.47-.646 2.228-.029.339.113.589.307.71 1.03.639 3.414 1.739 7.69 1.739s6.66-1.1 7.69-1.74c.194-.12.335-.37.306-.709-.065-.758-.34-1.557-.645-2.228-.22-.485-.762-.823-1.455-.823H6.104zm-3.277-.003c.608-1.34 1.966-1.997 3.277-1.997h11.792c1.31 0 2.668.656 3.276 1.997.35.77.724 1.805.817 2.883.084.982-.324 2.008-1.244 2.58-1.354.84-4.106 2.04-8.745 2.04-4.64 0-7.391-1.2-8.745-2.04-.92-.572-1.328-1.598-1.244-2.58.092-1.078.467-2.113.816-2.883z" fill="#1E212C"/></svg>