<svg width="23" height="24" fill="none" xmlns="http://www.w3.org/2000/svg"><path d="M20.32 22.69l.024-.037 2.333-4.736-6.815-5.111-3.136 2.351a4.842 4.842 0 01-4.545-4.545l2.352-3.136L5.42.662.725 2.975l-.04.02-.037.023A1.372 1.372 0 000 4.188V5.41a17.929 17.929 0 0017.929 17.928h1.222a1.372 1.372 0 001.17-.648zm-2.391-1.102C9.008 21.588 1.75 14.332 1.75 5.41v-.99l3.143-1.548 3.452 4.604-1.922 2.563v.292a6.592 6.592 0 006.584 6.584h.292l2.563-1.922 4.603 3.452-1.548 3.142h-.988z" fill="#fff"/></svg>