<svg width="24" height="24" viewBox="0 0 24 24" fill="none" xmlns="http://www.w3.org/2000/svg">
<path fill-rule="evenodd" clip-rule="evenodd" d="M11.9998 3.25C10.0668 3.25 8.49984 4.817 8.49984 6.75C8.49984 8.683 10.0668 10.25 11.9998 10.25C13.9328 10.25 15.4998 8.683 15.4998 6.75C15.4998 4.817 13.9328 3.25 11.9998 3.25ZM6.49984 6.75C6.49984 3.71243 8.96228 1.25 11.9998 1.25C15.0374 1.25 17.4998 3.71243 17.4998 6.75C17.4998 9.78757 15.0374 12.25 11.9998 12.25C8.96228 12.25 6.49984 9.78757 6.49984 6.75Z" fill="#1E212C"/>
<path fill-rule="evenodd" clip-rule="evenodd" d="M6.1039 15.25C5.41058 15.25 4.86868 15.5876 4.6487 16.0726C4.34424 16.7439 4.06854 17.5432 4.00348 18.3012C3.9744 18.64 4.11569 18.8897 4.31037 19.0107C5.33952 19.65 7.72424 20.75 11.9998 20.75C16.2755 20.75 18.6602 19.65 19.6893 19.0107C19.884 18.8897 20.0253 18.64 19.9962 18.3012C19.9311 17.5432 19.6554 16.7439 19.351 16.0726C19.131 15.5876 18.5891 15.25 17.8958 15.25H6.1039ZM2.82727 15.2466C3.43522 13.9061 4.79275 13.25 6.1039 13.25H17.8958C19.2069 13.25 20.5645 13.9061 21.1724 15.2466C21.5216 16.0165 21.8963 17.0515 21.9889 18.1301C22.0732 19.1124 21.6649 20.1379 20.7447 20.7096C19.3911 21.5504 16.6394 22.75 11.9998 22.75C7.36025 22.75 4.60854 21.5504 3.25501 20.7096C2.33475 20.1379 1.92651 19.1124 2.01081 18.1301C2.10339 17.0515 2.47809 16.0165 2.82727 15.2466Z" fill="#1E212C"/>
</svg>
