<svg width="56" height="56" fill="none" xmlns="http://www.w3.org/2000/svg"><path d="M52.251 9.629a1.556 1.556 0 00-1.384-.296L35.917 14l-14.98-7.607a1.556 1.556 0 00-1.306 0L4.076 12.756a1.556 1.556 0 00-.965 1.446V46.06a1.556 1.556 0 002.147 1.431l14.964-6.144L35.14 49c.221.114.467.172.715.171.155.024.313.024.467 0l15.556-4.853a1.556 1.556 0 001.089-1.556V10.89a1.557 1.557 0 00-.716-1.26zM49.778 41.61l-12.942 4.045v-3.563h-2.49v3.111L21.28 38.5v-2.629h-2.489v2.676l-12.569 5.18V15.229l12.57-5.18v3.655h2.488v-3.64l13.067 6.69v3.266h2.489v-2.909l12.942-4.107v28.607z" fill="#000"/><path d="M34.347 23.427h2.489v5.926h-2.49v-5.926zm0 9.333h2.489v5.927h-2.49V32.76zM18.791 17.205h2.49v5.926h-2.49v-5.926zm0 9.441h2.49v5.834h-2.49v-5.833z" fill="#000"/></svg>