<?xml version="1.0" encoding="utf-8"?><svg viewBox="0 0 512 512" xmlns="http://www.w3.org/2000/svg" xmlns:xlink="http://www.w3.org/1999/xlink"><style>:root>svg{display:none}:root>svg:target{display:block}</style><svg viewBox="0 0 22 22" id="icon-arrow-slide" xmlns="http://www.w3.org/2000/svg"><g clip-path="url(#aclip0_111_216)"><path d="M12.967 3.075l7.468 7.467H.458a.458.458 0 100 .917h19.977l-7.468 7.467a.458.458 0 00.648.648l8.25-8.25a.458.458 0 00.001-.648l-8.25-8.25a.458.458 0 00-.649.647v.002z"/><path d="M22 11a.458.458 0 01-.134.325l-8.25 8.25a.458.458 0 01-.648-.648L20.894 11l-7.926-7.926a.458.458 0 01.648-.648l8.25 8.25A.458.458 0 0122 11z"/><path d="M22 11a.458.458 0 01-.458.459H.458a.458.458 0 010-.917h21.084c.253 0 .458.205.458.459z"/></g><defs><clipPath id="aclip0_111_216"><path transform="rotate(-90 11 11)" d="M0 0h22v22H0z"/></clipPath></defs></svg><svg viewBox="0 0 20 20" id="icon-insta" xmlns="http://www.w3.org/2000/svg"><path d="M9.997 5.126c-2.84 0-5.13 2.177-5.13 4.874 0 2.697 2.29 4.874 5.13 4.874s5.131-2.177 5.131-4.874c0-2.697-2.291-4.874-5.13-4.874zm0 8.042c-1.836 0-3.334-1.424-3.334-3.168 0-1.744 1.498-3.168 3.334-3.168 1.837 0 3.335 1.424 3.335 3.168 0 1.744-1.498 3.168-3.335 3.168zm5.341-9.378c-.663 0-1.198.509-1.198 1.138 0 .63.535 1.139 1.198 1.139.663 0 1.199-.506 1.199-1.139 0-.15-.031-.297-.091-.436a1.136 1.136 0 00-.26-.37 1.203 1.203 0 00-.389-.246 1.252 1.252 0 00-.459-.086zm4.66 6.21c0-1.312.013-2.612-.064-3.921-.078-1.521-.443-2.871-1.614-3.984C17.147.981 15.73.636 14.127.562 12.747.49 11.378.501 10 .501 8.619.5 7.25.489 5.872.562 4.271.636 2.85.983 1.68 2.095.506 3.21.143 4.558.066 6.08-.012 7.39 0 8.69 0 10c0 1.31-.013 2.612.065 3.921.077 1.521.443 2.871 1.613 3.984 1.174 1.114 2.592 1.459 4.193 1.532 1.381.074 2.75.062 4.128.062 1.38 0 2.75.012 4.127-.061 1.602-.074 3.022-.421 4.193-1.533 1.174-1.115 1.536-2.463 1.614-3.984.08-1.31.065-2.61.065-3.921zm-2.2 5.604a3.01 3.01 0 01-.756 1.088c-.353.336-.69.545-1.146.718-1.316.497-4.44.385-5.899.385-1.458 0-4.585.112-5.901-.382a3.198 3.198 0 01-1.146-.718 3.032 3.032 0 01-.755-1.089c-.52-1.252-.403-4.22-.403-5.606 0-1.386-.118-4.356.403-5.606.182-.433.402-.756.755-1.089.353-.333.69-.544 1.146-.718 1.316-.494 4.443-.382 5.901-.382 1.459 0 4.586-.112 5.902.382.455.174.795.383 1.145.718.353.335.573.656.756 1.089.52 1.25.403 4.22.403 5.606 0 1.386.117 4.354-.406 5.604z"/></svg><svg viewBox="0 0 512 512" id="icon-letter" xmlns="http://www.w3.org/2000/svg"><!--! Font Awesome Pro 6.1.1 by @fontawesome - https://fontawesome.com License - https://fontawesome.com/license (Commercial License) Copyright 2022 Fonticons, Inc.--><path d="M464 64c26.5 0 48 21.49 48 48 0 15.1-7.1 29.3-19.2 38.4L275.2 313.6a32.1 32.1 0 01-38.4 0L19.2 150.4C7.113 141.3 0 127.1 0 112c0-26.51 21.49-48 48-48h416zM217.6 339.2a63.9 63.9 0 0076.8 0L512 176v208c0 35.3-28.7 64-64 64H64c-35.35 0-64-28.7-64-64V176l217.6 163.2z"/></svg><svg viewBox="0 0 384 512" id="icon-marker" xmlns="http://www.w3.org/2000/svg"><!--! Font Awesome Pro 6.1.1 by @fontawesome - https://fontawesome.com License - https://fontawesome.com/license (Commercial License) Copyright 2022 Fonticons, Inc.--><path d="M168.3 499.2C116.1 435 0 279.4 0 192 0 85.96 85.96 0 192 0c106 0 192 85.96 192 192 0 87.4-117 243-168.3 307.2-12.3 15.3-35.1 15.3-47.4 0zM192 256c35.3 0 64-28.7 64-64s-28.7-64-64-64-64 28.7-64 64 28.7 64 64 64z"/></svg><svg viewBox="0 0 23 24" id="icon-phone" xmlns="http://www.w3.org/2000/svg"><path d="M20.32 22.69l.024-.037 2.333-4.736-6.815-5.111-3.136 2.351a4.842 4.842 0 01-4.545-4.545l2.352-3.136L5.42.662.725 2.975l-.04.02-.037.023A1.372 1.372 0 000 4.188V5.41a17.929 17.929 0 0017.929 17.928h1.222a1.372 1.372 0 001.17-.648zm-2.391-1.102C9.008 21.588 1.75 14.332 1.75 5.41V4.42l3.143-1.548 3.452 4.604-1.922 2.563v.292a6.592 6.592 0 006.584 6.584h.292l2.563-1.922 4.603 3.452-1.548 3.142h-.988z"/></svg><svg viewBox="0 0 24 24" id="icon-user" xmlns="http://www.w3.org/2000/svg"><path fill-rule="evenodd" clip-rule="evenodd" d="M12 3.25a3.5 3.5 0 100 7 3.5 3.5 0 000-7zm-5.5 3.5a5.5 5.5 0 1111 0 5.5 5.5 0 01-11 0zM6.104 15.25c-.693 0-1.235.338-1.455.823-.305.67-.58 1.47-.646 2.228-.029.339.113.589.307.71 1.03.639 3.414 1.739 7.69 1.739s6.66-1.1 7.69-1.74c.194-.12.335-.37.306-.709-.065-.758-.34-1.557-.645-2.228-.22-.485-.762-.823-1.455-.823H6.104zm-3.277-.003c.608-1.34 1.966-1.997 3.277-1.997h11.792c1.31 0 2.668.656 3.276 1.997.35.77.724 1.805.817 2.883.084.982-.324 2.008-1.244 2.58-1.354.84-4.106 2.04-8.745 2.04-4.64 0-7.391-1.2-8.745-2.04-.92-.572-1.328-1.598-1.244-2.58.092-1.078.467-2.113.816-2.883z"/></svg><svg viewBox="0 0 26 26" id="icon-whatsapp" xmlns="http://www.w3.org/2000/svg"><path fill-rule="evenodd" clip-rule="evenodd" d="M22.212 3.779A12.864 12.864 0 0018.014.976 12.914 12.914 0 0013.054 0C5.92 0 .112 5.78.109 12.884c0 2.27.596 4.486 1.728 6.44L0 26l6.863-1.793a12.999 12.999 0 006.186 1.57h.006c7.134 0 12.942-5.78 12.945-12.885a12.758 12.758 0 00-.978-4.934 12.809 12.809 0 00-2.81-4.18zm-9.157 19.823h-.005c-1.927 0-3.819-.516-5.476-1.494l-.393-.233L3.11 22.94l1.086-3.951-.255-.405a10.652 10.652 0 01-1.646-5.7C2.297 6.98 7.124 2.177 13.06 2.177a10.734 10.734 0 014.12.812 10.692 10.692 0 013.487 2.328 10.645 10.645 0 012.336 3.475c.54 1.3.816 2.694.812 4.101-.003 5.905-4.83 10.71-10.76 10.71zm5.902-8.021c-.324-.163-1.914-.94-2.21-1.048-.296-.108-.511-.16-.727.16-.217.322-.837 1.047-1.026 1.262-.189.215-.377.241-.7.08-.324-.16-1.366-.5-2.602-1.597-.962-.854-1.61-1.907-1.8-2.23-.189-.323-.02-.497.143-.658.146-.143.323-.376.485-.564.161-.188.215-.321.323-.536.108-.216.055-.404-.028-.564-.08-.163-.728-1.747-.998-2.391-.26-.625-.527-.541-.726-.55a13.977 13.977 0 00-.619-.012 1.196 1.196 0 00-.864.402c-.297.323-1.132 1.101-1.132 2.686 0 1.584 1.16 3.115 1.321 3.33.162.216 2.281 3.467 5.526 4.862.773.331 1.376.53 1.844.678.775.246 1.48.21 2.038.128.622-.092 1.914-.778 2.183-1.53.27-.752.27-1.396.19-1.531-.082-.135-.3-.217-.621-.377z"/></svg></svg>