<?xml version="1.0" encoding="utf-8"?><svg viewBox="0 0 26 26" xmlns="http://www.w3.org/2000/svg" xmlns:xlink="http://www.w3.org/1999/xlink"><style>:root>svg{display:none}:root>svg:target{display:block}</style><svg viewBox="0 0 22 22" id="icon-arrow-slide" xmlns="http://www.w3.org/2000/svg"><g clip-path="url(#aclip0_111_216)"><path d="M12.967 3.075l7.468 7.467H.458a.458.458 0 100 .917h19.977l-7.468 7.467a.458.458 0 00.648.648l8.25-8.25a.458.458 0 00.001-.648l-8.25-8.25a.458.458 0 00-.649.647v.002z"/><path d="M22 11a.458.458 0 01-.134.325l-8.25 8.25a.458.458 0 01-.648-.648L20.894 11l-7.926-7.926a.458.458 0 01.648-.648l8.25 8.25A.458.458 0 0122 11z"/><path d="M22 11a.458.458 0 01-.458.459H.458a.458.458 0 010-.917h21.084c.253 0 .458.205.458.459z"/></g><defs><clipPath id="aclip0_111_216"><path transform="rotate(-90 11 11)" d="M0 0h22v22H0z"/></clipPath></defs></svg><svg viewBox="0 0 23 24" id="icon-phone" xmlns="http://www.w3.org/2000/svg"><path d="M20.32 22.69l.024-.037 2.333-4.736-6.815-5.111-3.136 2.351a4.842 4.842 0 01-4.545-4.545l2.352-3.136L5.42.662.725 2.975l-.04.02-.037.023A1.372 1.372 0 000 4.188V5.41a17.929 17.929 0 0017.929 17.928h1.222a1.372 1.372 0 001.17-.648zm-2.391-1.102C9.008 21.588 1.75 14.332 1.75 5.41V4.42l3.143-1.548 3.452 4.604-1.922 2.563v.292a6.592 6.592 0 006.584 6.584h.292l2.563-1.922 4.603 3.452-1.548 3.142h-.988z"/></svg><svg viewBox="0 0 24 24" id="icon-user" xmlns="http://www.w3.org/2000/svg"><path fill-rule="evenodd" clip-rule="evenodd" d="M12 3.25a3.5 3.5 0 100 7 3.5 3.5 0 000-7zm-5.5 3.5a5.5 5.5 0 1111 0 5.5 5.5 0 01-11 0zM6.104 15.25c-.693 0-1.235.338-1.455.823-.305.67-.58 1.47-.646 2.228-.029.339.113.589.307.71 1.03.639 3.414 1.739 7.69 1.739s6.66-1.1 7.69-1.74c.194-.12.335-.37.306-.709-.065-.758-.34-1.557-.645-2.228-.22-.485-.762-.823-1.455-.823H6.104zm-3.277-.003c.608-1.34 1.966-1.997 3.277-1.997h11.792c1.31 0 2.668.656 3.276 1.997.35.77.724 1.805.817 2.883.084.982-.324 2.008-1.244 2.58-1.354.84-4.106 2.04-8.745 2.04-4.64 0-7.391-1.2-8.745-2.04-.92-.572-1.328-1.598-1.244-2.58.092-1.078.467-2.113.816-2.883z"/></svg><svg viewBox="0 0 26 26" id="icon-whatsapp" xmlns="http://www.w3.org/2000/svg"><path fill-rule="evenodd" clip-rule="evenodd" d="M22.212 3.779A12.864 12.864 0 0018.014.976 12.914 12.914 0 0013.054 0C5.92 0 .112 5.78.109 12.884c0 2.27.596 4.486 1.728 6.44L0 26l6.863-1.793a12.999 12.999 0 006.186 1.57h.006c7.134 0 12.942-5.78 12.945-12.885a12.758 12.758 0 00-.978-4.934 12.809 12.809 0 00-2.81-4.18zm-9.157 19.823h-.005c-1.927 0-3.819-.516-5.476-1.494l-.393-.233L3.11 22.94l1.086-3.951-.255-.405a10.652 10.652 0 01-1.646-5.7C2.297 6.98 7.124 2.177 13.06 2.177a10.734 10.734 0 014.12.812 10.692 10.692 0 013.487 2.328 10.645 10.645 0 012.336 3.475c.54 1.3.816 2.694.812 4.101-.003 5.905-4.83 10.71-10.76 10.71zm5.902-8.021c-.324-.163-1.914-.94-2.21-1.048-.296-.108-.511-.16-.727.16-.217.322-.837 1.047-1.026 1.262-.189.215-.377.241-.7.08-.324-.16-1.366-.5-2.602-1.597-.962-.854-1.61-1.907-1.8-2.23-.189-.323-.02-.497.143-.658.146-.143.323-.376.485-.564.161-.188.215-.321.323-.536.108-.216.055-.404-.028-.564-.08-.163-.728-1.747-.998-2.391-.26-.625-.527-.541-.726-.55a13.977 13.977 0 00-.619-.012 1.196 1.196 0 00-.864.402c-.297.323-1.132 1.101-1.132 2.686 0 1.584 1.16 3.115 1.321 3.33.162.216 2.281 3.467 5.526 4.862.773.331 1.376.53 1.844.678.775.246 1.48.21 2.038.128.622-.092 1.914-.778 2.183-1.53.27-.752.27-1.396.19-1.531-.082-.135-.3-.217-.621-.377z"/></svg></svg>